<?xml version="1.0" standalone="no"?>
<!DOCTYPE svg PUBLIC "-//W3C//DTD SVG 1.1//EN" "http://www.w3.org/Graphics/SVG/1.1/DTD/svg11.dtd" >
<svg xmlns="http://www.w3.org/2000/svg">
<metadata></metadata>
<defs>
<font id="power_rangersregular" horiz-adv-x="926" >
<font-face units-per-em="2048" ascent="1638" descent="-410" />
<missing-glyph horiz-adv-x="508" />
<glyph horiz-adv-x="2048" />
<glyph horiz-adv-x="2048" />
<glyph unicode="&#xd;" horiz-adv-x="508" />
<glyph unicode=" "  horiz-adv-x="508" />
<glyph unicode="&#x09;" horiz-adv-x="508" />
<glyph unicode="&#xa0;" horiz-adv-x="508" />
<glyph unicode="!" horiz-adv-x="919" d="M0 1683h12q44 -102 363 -409l109 -92v-6q-86 -332 -86 -513l-12 -6h-6q-53 94 -63 98h-6q-6 -92 -6 -109q0 -106 47 -317h-6l-52 40v-6q35 -154 92 -363q-190 302 -230 524h5q63 -51 70 -51h5q-187 372 -213 616h12q0 -16 92 -132q11 6 17 6q-144 496 -144 720zM17 1700 v6q187 -63 444 -98q211 -196 432 -340v-6h-5q-184 0 -392 -69q-340 289 -461 478zM29 1130h6l40 5q11 -15 40 -126h-11q-75 109 -75 121zM323 323q5 0 40 -29h6q17 0 46 17q0 -6 6 -6q-6 -57 -6 -86v-213h-12q-69 233 -80 317zM323 634v69h6l69 -86q115 69 155 69 q-33 -104 -63 -329q-65 -21 -110 -46q-57 170 -57 323zM409 651q28 338 98 531q203 63 363 63h18l11 6l6 -12q-145 -159 -306 -519q-105 -24 -184 -74q0 5 -6 5z" />
<glyph unicode="&#x22;" horiz-adv-x="548" d="M7 1689h8q160 17 212 17q17 -49 59 -576q-40 -17 -228 -25q-51 446 -51 584zM295 1681q33 17 93 17h127q17 -3 17 -17v-102q0 -159 8 -466l-17 -8h-203q-17 0 -17 17v262q0 97 -8 297z" />
<glyph unicode="#" horiz-adv-x="1471" d="M0 566q0 10 385 34v130l-351 -17q-11 0 -17 260q-6 0 -6 6q19 11 29 11q71 0 345 17v396q2 12 11 12h249q11 -2 11 -12v-384l12 5h73l40 6v379q2 11 11 11h249q12 -1 12 -11v-368l373 23l6 -11q0 -46 11 -261l-11 -5q-329 -17 -379 -17v-114q301 29 356 29 q11 -69 28 -266q-24 -12 -384 -40v-362q0 -11 -12 -11h-249q-11 0 -11 11v340q-86 -6 -119 -6l-6 -11v-329q0 -11 -11 -11h-249q-11 0 -11 11v312h-6q-62 0 -351 -29q-10 0 -28 272zM656 622q11 6 17 6q18 0 108 6v119q-85 -6 -125 -6v-125z" />
<glyph unicode="$" horiz-adv-x="849" d="M0 356q10 11 258 90q74 -196 218 -196q60 0 68 78q0 164 -258 331q-230 177 -230 359v39q0 228 252 331q56 11 96 11q173 0 347 -180v-11l-191 -179q-102 95 -173 95q-62 -27 -62 -84q0 -85 275 -275q213 -195 213 -414v-28q0 -252 -253 -337q-44 -11 -95 -11 q-308 0 -465 381zM241 -42q2 11 11 11h247q11 -1 11 -11v-269q0 -11 -11 -11h-247q-11 0 -11 11v269zM241 1427v269q2 11 11 11h247q11 -2 11 -11v-269q0 -11 -11 -11h-247q-11 0 -11 11z" />
<glyph unicode="%" horiz-adv-x="1146" d="M0 1148v17q25 195 165 195h8q140 0 165 -195v-17q-25 -195 -165 -195h-8q-140 0 -165 195zM126 100l740 1329h4q16 0 182 -100l-740 -1329h-5q-16 0 -181 100zM788 238v17q25 195 165 195h8q140 0 165 -195v-17q-25 -195 -165 -195h-8q-140 0 -165 195z" />
<glyph unicode="&#x26;" horiz-adv-x="1032" d="M0 312v34q0 161 136 333q-125 240 -125 401q0 246 232 333q69 23 141 23h40q249 0 333 -265q0 -55 5 -57q0 -222 -276 -469q86 -114 163 -192q42 95 51 102q247 -70 254 -85q-39 -114 -101 -214q169 -136 169 -141v-6q-133 -178 -164 -209q-195 158 -203 158 q-108 -62 -220 -62h-34q-343 0 -401 316zM277 318q0 -41 163 -51v6l-141 158q-22 -45 -22 -74v-39zM288 1075q0 -90 56 -187q142 140 142 220q0 57 -85 57q-113 0 -113 -79v-11z" />
<glyph unicode="'" horiz-adv-x="290" d="M15 1681q33 17 93 17h127q17 -3 17 -17v-102q0 -159 8 -466l-16 -8h-204q-17 0 -17 17v262q0 97 -8 297z" />
<glyph unicode="(" horiz-adv-x="524" d="M0 681v78q0 474 353 914l45 45q173 -165 185 -191v-5q-314 -367 -314 -791q0 -428 336 -868q-5 -11 -207 -163h-6q-392 509 -392 981z" />
<glyph unicode=")" horiz-adv-x="523" d="M-80 -132q335 440 335 866q0 423 -313 788v12l179 184h6q397 -439 397 -956v-78q0 -464 -392 -984h-5q-207 163 -207 168z" />
<glyph unicode="*" horiz-adv-x="488" d="M0 1057l173 162q-139 104 -139 134q8 0 16 16v28q0 11 -11 56h6q7 0 145 -128v201h11q56 -218 67 -218q156 145 173 145v-5q-11 -37 -11 -51v-28l17 -22q0 -15 -140 -134q21 -10 173 -156h-11q-82 35 -201 100h-5v-218h-12q-44 178 -61 207q-167 -89 -190 -89z" />
<glyph unicode="+" d="M0 802q0 11 310 16v338q2 11 11 11h244q11 -2 11 -11v-327h5q76 0 310 6l6 -11v-17q0 -85 5 -232q0 -11 -326 -17v-332q0 -11 -11 -11h-244q-11 0 -11 11v321h-6q-287 -5 -293 -5l-5 11v16q0 85 -6 233z" />
<glyph unicode="," horiz-adv-x="290" d="M15 211q33 17 93 17h127q17 -3 17 -17v-102q0 -159 8 -466l-16 -8h-204q-17 0 -17 17v262q0 97 -8 297z" />
<glyph unicode="-" d="M0 769q0 13 887 33l5 -11v-17q0 -84 6 -231q0 -13 -887 -33l-5 11v17q0 84 -6 231z" />
<glyph unicode="." horiz-adv-x="269" d="M2 143v13q18 141 120 141h6q102 0 120 -141v-13q-18 -142 -120 -142h-6q-102 0 -120 142z" />
<glyph unicode="/" horiz-adv-x="912" d="M-90 -302l775 2011h6q267 -92 267 -109q-739 -1925 -775 -2011h-6q-267 98 -267 109z" />
<glyph unicode="0" horiz-adv-x="849" d="M0 695v40q0 450 241 649q74 52 155 52h12q288 0 385 -528q11 -78 11 -167v-40q0 -450 -241 -649q-74 -52 -155 -52h-12q-288 0 -385 528q-11 78 -11 167zM276 718q0 -300 126 -437q126 137 126 437t-126 437q-126 -137 -126 -437z" />
<glyph unicode="1" horiz-adv-x="608" d="M0 992v6q0 7 559 438l6 -12v-1412q0 -12 -11 -12h-254q-12 0 -12 12v859l-121 -92q-11 5 -167 213z" />
<glyph unicode="2" horiz-adv-x="905" d="M0 11q580 677 580 954v29q-10 161 -52 161h-34q-115 -5 -316 -144q-31 31 -167 212v6q269 207 506 207q230 0 322 -270q23 -111 23 -190q0 -267 -293 -695h275q12 -1 12 -11v-259q0 -11 -12 -11q-844 6 -844 11z" />
<glyph unicode="3" horiz-adv-x="1047" d="M0 265v7l175 211h18q241 -187 386 -187q99 0 127 138v25q0 92 -374 259v12q344 129 344 187q30 68 30 133q0 90 -48 90h-49q-113 0 -344 -114q-138 229 -138 253v6q298 151 513 151q232 0 325 -211q31 -67 31 -157v-36q0 -169 -103 -320q109 -114 109 -278 q0 -239 -254 -398q-65 -24 -157 -36q-271 0 -591 265z" />
<glyph unicode="4" horiz-adv-x="969" d="M0 581q180 822 192 843h6q261 -51 261 -64v-5q0 -19 -110 -500h296v569q2 12 12 12h256q11 -2 11 -12v-1412q0 -12 -11 -12h-256q-12 0 -12 12v564h-633z" />
<glyph unicode="5" horiz-adv-x="1014" d="M0 513v911q2 12 12 12h911q11 -2 11 -12v-253q0 -12 -11 -12h-646v-265q96 17 225 23q373 0 467 -340q6 -58 6 -87v-52q0 -305 -352 -392q-159 -46 -467 -46h-52q-12 0 -12 12v253q2 12 12 12q454 0 571 92q23 42 23 87q0 122 -75 161q-63 17 -121 17h-23 q-163 0 -473 -121h-6z" />
<glyph unicode="6" horiz-adv-x="856" d="M0 712v79q0 396 367 583q172 62 232 62q12 0 40 -266q-193 -42 -266 -118q-90 -107 -90 -204q70 40 147 40h22q241 0 351 -306q17 -59 17 -118v-40q0 -238 -209 -379q-78 -45 -159 -45h-22q-285 0 -390 430q-40 149 -40 282zM334 441q23 -170 113 -170q75 0 101 176 q-23 169 -113 169q-75 0 -101 -175z" />
<glyph unicode="7" horiz-adv-x="948" d="M0 114q435 963 469 1047h-429q-11 0 -11 12v252q1 11 11 11h847l11 -6q-625 -1392 -652 -1430z" />
<glyph unicode="8" horiz-adv-x="856" d="M0 386v45q0 151 142 290q-142 126 -142 284v45q0 211 233 346q85 40 159 40h51q179 0 323 -199q57 -100 57 -187v-45q0 -151 -142 -290q142 -126 142 -284v-45q0 -211 -233 -346q-85 -40 -159 -40h-39q-242 0 -375 278q-17 72 -17 108zM272 409q0 -115 142 -137 q137 27 137 137q0 114 -142 136q-137 -26 -137 -136zM272 1027q0 -114 142 -136q137 26 137 136q0 115 -142 137q-137 -27 -137 -137z" />
<glyph unicode="9" horiz-adv-x="856" d="M0 1003v46q0 211 234 347q85 40 159 40h51q180 0 325 -199q57 -101 57 -188v-46q0 -117 -159 -365q-373 -637 -382 -638q-212 125 -228 131v17q274 461 274 473q-164 44 -246 154q-85 115 -85 228zM274 1026q0 -115 142 -137q137 26 137 137q0 115 -143 136 q-136 -26 -136 -136z" />
<glyph unicode=":" horiz-adv-x="269" d="M2 391v13q18 141 120 141h6q102 0 120 -141v-13q-18 -142 -120 -142h-6q-102 0 -120 142zM2 935v13q18 141 120 141h6q102 0 120 -141v-13q-18 -142 -120 -142h-6q-102 0 -120 142z" />
<glyph unicode=";" horiz-adv-x="269" d="M2 935v13q18 141 120 141h6q102 0 120 -141v-13q-18 -142 -120 -142h-6q-102 0 -120 142zM15 211q33 17 93 17h127q17 -3 17 -17v-102q0 -159 8 -466l-16 -8h-204q-17 0 -17 17v262q0 97 -8 297z" />
<glyph unicode="&#x3c;" horiz-adv-x="877" d="M0 713v5q78 87 689 718h5q32 -20 166 -161l-533 -557l547 -552q-4 -10 -166 -166z" />
<glyph unicode="=" d="M0 569q0 13 887 33l5 -11v-17q0 -84 6 -231q0 -13 -887 -33l-5 11v17q0 84 -6 231zM0 1021q0 13 887 33l5 -11v-17q0 -84 6 -231q0 -13 -887 -33l-5 11v17q0 84 -6 231z" />
<glyph unicode="&#x3e;" horiz-adv-x="877" d="M0 166q370 371 547 557q-29 24 -532 552q133 141 166 161h5q611 -631 688 -718v-5l-708 -713q-10 4 -166 166z" />
<glyph unicode="?" horiz-adv-x="948" d="M0 978v6q122 304 356 407q93 45 198 45h45q215 0 300 -209q17 -51 17 -108q0 -227 -226 -458q-64 -102 -96 -192h-17q-80 0 -243 -22l-6 11v23q0 189 277 508q34 82 34 108v45q0 19 -74 23q-178 0 -316 -277q-40 17 -249 90zM317 187v11q29 186 186 186q128 0 181 -158 v-39q-27 -187 -181 -187h-5q-155 0 -181 187z" />
<glyph unicode="@" horiz-adv-x="1421" d="M0 660v111q0 512 391 755q151 70 287 70h63q416 0 587 -496q56 -165 56 -350v-7q-153 -614 -168 -614q-250 306 -280 335h-433q-77 -114 -77 -126q96 -133 287 -133q62 0 181 70h14q34 -26 203 -258q-192 -147 -398 -147h-49q-387 0 -587 405q-77 195 -77 385zM342 820 q55 62 315 434h-7q-189 0 -287 -301q-21 -108 -21 -133zM657 667h112v7q-52 69 -63 69zM734 1254q267 -331 293 -357v14q-75 350 -293 350v-7z" />
<glyph unicode="A" horiz-adv-x="958" d="M0 6q35 100 457 1430h12q469 -1371 492 -1430l-11 -6h-348q-15 0 -29 104h-226q-13 -104 -29 -104h-306zM417 313h93l-41 191q-14 0 -52 -191z" />
<glyph unicode="B" horiz-adv-x="771" d="M0 11v1414q2 11 11 11h384q290 0 360 -257q6 -40 6 -63v-86q0 -180 -97 -315v-11q97 -120 97 -252v-69q0 -267 -269 -354q-92 -29 -217 -29h-264q-11 0 -11 11zM263 257h46q125 0 143 172v12q0 164 -97 183h-92v-367zM263 807h12q177 23 177 177v23q0 144 -92 166h-97 v-366z" />
<glyph unicode="C" horiz-adv-x="778" d="M0 749q0 517 252 664q47 23 91 23h406q12 -2 12 -11v-241q0 -11 -12 -11h-326q-123 0 -148 -361v-108q0 -363 160 -447q31 -5 51 -5h263q12 -2 12 -12v-229q0 -11 -12 -11h-331q-205 0 -349 309q-69 199 -69 440z" />
<glyph unicode="D" horiz-adv-x="771" d="M0 11v1414q2 11 11 11h407q198 0 303 -338q40 -159 40 -354q0 -545 -303 -715q-71 -29 -115 -29h-332q-11 0 -11 11zM223 309h63q110 0 149 235q11 77 11 165v58q0 246 -80 331q-28 18 -46 18h-97v-807z" />
<glyph unicode="E" horiz-adv-x="467" d="M0 11v1421q2 11 11 11h428q12 -2 12 -11v-337q0 -11 -12 -11h-194v-223h114q12 -2 12 -11v-274q0 -11 -12 -11h-119v-223h199q12 -2 12 -11v-320q0 -11 -12 -11h-428q-11 0 -11 11z" />
<glyph unicode="F" horiz-adv-x="474" d="M0 11v1421q2 11 11 11h428q12 -2 12 -11v-337q0 -11 -12 -11h-194v-223h114q12 -2 12 -11v-274q0 -11 -12 -11h-119v-554q0 -11 -12 -11h-217q-11 0 -11 11z" />
<glyph unicode="G" horiz-adv-x="707" d="M0 370v770q0 188 211 279q90 17 148 17q258 0 331 -234q5 -8 5 -34q-239 -119 -256 -119q-57 113 -103 113q-57 0 -68 -85v-724q0 -57 91 -57q92 0 108 143q6 22 6 40h-97q-11 0 -11 11v279q1 12 11 12h268q11 -2 11 -12v-478q0 -198 -205 -280q-51 -11 -74 -11h-74 q-209 0 -279 177q-23 53 -23 193z" />
<glyph unicode="H" horiz-adv-x="750" d="M0 11v1414q2 11 11 11h222q11 -2 11 -11v-568h250v568q2 11 11 11h222q11 -2 11 -11v-1414q0 -11 -11 -11h-210q-12 0 -12 11v557h-272v-557q0 -11 -12 -11h-210q-11 0 -11 11z" />
<glyph unicode="I" horiz-adv-x="403" d="M0 1407q39 12 261 29q10 0 121 -1407q-39 -12 -260 -29q-10 0 -122 1407z" />
<glyph unicode="J" horiz-adv-x="700" d="M0 418q0 63 17 63h206q9 -8 40 -138q32 -40 63 -40h29q55 0 68 63v1059q2 11 12 11h240q12 -2 12 -11v-1128q0 -211 -201 -280q-65 -17 -97 -17h-63q-204 0 -297 189q-29 78 -29 229z" />
<glyph unicode="K" horiz-adv-x="827" d="M0 11v1408q2 11 11 11h240q11 -1 11 -11v-467q361 480 371 484q0 -5 176 -171v-6q0 -5 -410 -564q23 -23 399 -558v-17q-7 0 -217 -114l-319 438v-433q0 -11 -11 -11h-240q-11 0 -11 11z" />
<glyph unicode="L" horiz-adv-x="941" d="M0 1405q39 11 260 28q12 -41 104 -1156l538 35l5 -11q0 -55 12 -232l-12 -5q-44 0 -786 -64q-10 0 -121 1405z" />
<glyph unicode="M" horiz-adv-x="1464" d="M0 17l505 1419h6q12 -4 69 -172q109 -267 138 -362h6l115 362q55 166 63 166q19 0 120 -310q12 -12 219 -563q201 -533 201 -546l-12 -5h-344l-41 -6l-172 448h-11q0 -25 -127 -408q-8 -23 -17 -23q-11 0 -92 259q-10 0 -52 132q-16 46 -23 46q-125 -352 -178 -448h-362 q-11 0 -11 11z" />
<glyph unicode="N" horiz-adv-x="728" d="M0 12v1407q2 11 12 11q425 -563 444 -576v570q1 12 11 12h225q12 -2 12 -12v-1407q0 -11 -12 -11q-435 602 -444 605v-599q0 -12 -12 -12h-224q-12 0 -12 12z" />
<glyph unicode="O" horiz-adv-x="1131" d="M0 706v35q0 297 203 539q144 136 301 156h110q13 -12 92 -23l128 -70q0 -10 58 -52q173 -200 197 -393q0 -9 17 -70q0 -51 6 -116q0 -229 -128 -451q-182 -261 -405 -261h-69q-173 0 -354 208q-156 222 -156 498zM284 753h237v-6q0 -17 -139 -301h139q12 -2 12 -12 l-70 -307q37 31 371 417h-185l-12 6l203 388h-203l-12 6l128 237q-210 128 -220 128v-6z" />
<glyph unicode="P" horiz-adv-x="714" d="M0 11v1414q2 11 11 11h470q211 0 211 -292v-189q0 -287 -97 -354q-63 -40 -177 -40h-155v-550q0 -11 -11 -11h-241q-11 0 -11 11zM263 812q2 -11 12 -11h11q166 0 166 206q0 166 -69 166h-120v-361z" />
<glyph unicode="Q" horiz-adv-x="1167" d="M0 706v34q0 297 203 539q144 137 301 157h111q13 -12 92 -23l128 -70q0 -10 58 -52q173 -201 197 -394q0 -9 17 -70q0 -51 6 -116q0 -203 -104 -411l-18 -12h-226q-7 -1 -214 -290h-41q-173 0 -353 209q-157 221 -157 499zM284 752h238v-6q0 -17 -139 -301h139 q11 -2 11 -12l-69 -307q36 30 371 417h-186l-11 6l203 388h-203l-12 6l128 238q-210 127 -221 127v-5zM591 4q172 247 186 255h388q12 -2 12 -11q-12 -6 -377 -464q-51 -64 -58 -64v6l35 266h-186v12z" />
<glyph unicode="R" horiz-adv-x="820" d="M0 11v1414q2 11 11 11h384q290 0 360 -257q6 -40 6 -63v-86q0 -340 -280 -435q0 -6 326 -463q-46 -35 -223 -126l-321 440v-435q0 -11 -11 -11h-241q-11 0 -11 11zM263 807h12q177 23 177 177v23q0 144 -92 166h-97v-366z" />
<glyph unicode="S" horiz-adv-x="849" d="M0 380q31 23 261 91q83 -199 210 -199q80 0 80 86q0 169 -267 334q-227 181 -227 364v39q0 205 221 318q57 23 114 23h22q174 0 347 -182v-5q-1 -6 -193 -182h-6q-100 97 -159 97q-64 0 -74 -97q0 -76 301 -289q193 -192 193 -398v-45q0 -230 -250 -324q-42 -11 -79 -11 h-29q-304 0 -465 380z" />
<glyph unicode="T" horiz-adv-x="958" d="M0 1090v335q2 11 11 11h914q12 -2 12 -11v-335q0 -12 -12 -12h-329v-1067q0 -11 -11 -11h-227q-12 0 -12 11v1067h-335q-11 0 -11 12z" />
<glyph unicode="U" horiz-adv-x="1011" d="M0 427v998q2 11 11 11h234q11 -2 11 -11v-992q0 -129 131 -177l35 -5h136q134 0 166 176v998q1 11 11 11h234q11 -2 11 -11v-998q0 -297 -211 -393q-75 -34 -131 -34h-296q-186 0 -302 205q-40 94 -40 222z" />
<glyph unicode="V" horiz-adv-x="1103" d="M0 1424l12 6h346l40 6q11 -16 138 -369h6q0 14 139 369l40 -6h346l11 -6q0 -12 -467 -1251q-59 -167 -75 -173h-5z" />
<glyph unicode="W" horiz-adv-x="1464" d="M0 1425l11 5h345l40 6l173 -448h11q0 25 127 408q8 23 17 23q11 0 92 -259q10 0 51 -132q16 -46 23 -46q126 352 178 448h362q12 -2 12 -11l-506 -1419h-5q-12 4 -69 172q-110 267 -138 362h-6l-115 -362q-55 -166 -63 -166q-19 0 -121 310q-11 12 -218 563 q-201 533 -201 546z" />
<glyph unicode="X" horiz-adv-x="958" d="M0 136l351 582q-340 567 -345 594v5q7 0 209 119q268 -440 277 -469h11q246 428 288 469q201 -125 204 -136l-350 -582q339 -567 344 -594v-5q-7 0 -209 -119q-268 440 -277 469h-11q-246 -428 -288 -469q-201 125 -204 136z" />
<glyph unicode="Y" horiz-adv-x="1131" d="M0 1430l12 6h386q49 -90 179 -467h5q127 425 150 467h370q11 -2 11 -12q-265 -748 -340 -997v-415q0 -12 -12 -12h-380q-12 0 -12 12v415q0 17 -369 1003z" />
<glyph unicode="Z" horiz-adv-x="1160" d="M0 6l687 1145h-413q-11 0 -11 11v263q1 11 11 11h877q-6 -28 -358 -592q-9 -26 -335 -565h419q11 -1 11 -11v-257q0 -11 -11 -11h-866z" />
<glyph unicode="[" horiz-adv-x="580" d="M0 1042v144q0 397 210 497q50 30 120 30h185q9 0 18 -18v-258q0 -12 -12 -12q-110 -6 -185 -6h-6q-36 -79 -36 -173v-1211q8 -161 48 -161h107q30 0 90 6q13 0 18 -288l-12 -6q-37 0 -197 -6q-239 0 -330 294l-12 77q-6 708 -6 1091z" />
<glyph unicode="\" horiz-adv-x="912" d="M-60 1614q11 12 269 104q9 -8 226 -563l563 -1474q-234 -93 -275 -104q-772 1992 -783 2037z" />
<glyph unicode="]" horiz-adv-x="580" d="M0 -402q0 281 24 281q110 -6 185 -6q54 16 54 161v1207q-12 173 -48 173h-179q-12 0 -12 12v251q0 16 12 36l42 -6h161q249 0 311 -394q6 -52 6 -132v-131q0 -402 -6 -1100q-55 -370 -359 -370h-24q-51 0 -161 6z" />
<glyph unicode="^" horiz-adv-x="1032" d="M0 816q496 861 507 888h6q20 -20 501 -888q-218 -131 -240 -131h-5q-247 454 -262 461q-256 -457 -274 -467z" />
<glyph unicode="_" horiz-adv-x="1499" d="M0 -23q0 13 1453 33l9 -11v-17q0 -84 9 -231q0 -13 -1453 -33l-9 11v17q0 84 -9 231z" />
<glyph unicode="a" horiz-adv-x="488" d="M-110 574l275 862h12l299 -867l-12 -6h-205q-11 0 -23 64h-135q-7 -64 -23 -64h-176q-12 0 -12 11zM113 12v281q2 12 11 12h422q12 -2 12 -12v-281q0 -12 -12 -12h-422q-11 0 -11 12zM142 756h59q-24 89 -24 111q-12 0 -35 -111z" />
<glyph unicode="b" horiz-adv-x="495" d="M-396 12v278q2 11 12 11h868q12 -2 12 -11v-278q0 -12 -12 -12h-868q-12 0 -12 12zM27 567v857q2 12 11 12h232q156 0 208 -127q18 -50 18 -70v-29q0 -139 -64 -220q64 -75 64 -174v-17q0 -171 -174 -226q-77 -17 -133 -17h-151q-11 0 -11 11zM189 724q2 -12 11 -12 q105 0 105 116q0 110 -64 110h-52v-214zM189 1048h6q98 0 110 122q0 104 -64 104h-52v-226z" />
<glyph unicode="c" horiz-adv-x="488" d="M-396 12v278q2 11 12 11h862q12 -2 12 -11v-278q0 -12 -12 -12h-862q-12 0 -12 12zM27 961v110q0 262 162 353q37 12 52 12h237q12 -2 12 -12v-150h-191q-110 0 -110 -266q15 -290 104 -290q0 -6 17 -6h168q12 -2 12 -11v-134q0 -11 -12 -11h-168q-210 0 -272 289 q-11 58 -11 116z" />
<glyph unicode="d" horiz-adv-x="488" d="M-396 12v276q2 12 12 12h859q11 -2 11 -12v-276q0 -12 -11 -12h-859q-12 0 -12 12zM25 571v853q2 12 12 12h236q138 0 196 -231q17 -53 17 -132v-110q0 -322 -230 -398q-22 -6 -52 -6h-167q-12 0 -12 12zM163 750h29q58 0 81 69q23 65 23 138v116q0 167 -92 167h-41v-490 z" />
<glyph unicode="e" horiz-adv-x="368" d="M-410 11v276q2 12 13 12h753q13 -2 13 -12v-276q0 -11 -13 -11h-753q-13 0 -13 11zM9 569v850l8 11q133 6 194 6h130q14 -2 14 -11v-202q0 -11 -14 -11h-137v-132h72q14 -2 14 -12v-155q0 -11 -14 -11h-79v-132h144q14 -2 14 -12v-189q0 -12 -14 -12h-317q-15 0 -15 12z " />
<glyph unicode="f" horiz-adv-x="341" d="M-362 11v276q2 11 11 11h666q12 -1 12 -11v-276q0 -11 -12 -11h-666q-11 0 -11 11zM51 568v850l6 11q106 6 155 6h103q12 -2 12 -11v-201q0 -12 -12 -12h-109v-132h58q11 -2 11 -11v-155q0 -12 -11 -12h-63v-333q0 -11 -12 -11h-126q-12 0 -12 11z" />
<glyph unicode="g" horiz-adv-x="453" d="M-390 12v276q2 12 12 12h818q12 -2 12 -12v-276q0 -12 -12 -12h-818q-12 0 -12 12zM25 1240q0 173 202 196h23q136 0 190 -121q12 -23 12 -40q-149 -75 -156 -75q-25 52 -52 69h-5q-47 0 -47 -46v-456q10 -23 41 -23h17q55 0 69 110h-57q-12 0 -12 11v162q2 11 12 11h155 q12 -2 12 -11v-277q0 -127 -115 -173q-39 -18 -87 -18q-126 0 -179 93q-17 44 -17 80v485q0 13 -6 23z" />
<glyph unicode="h" horiz-adv-x="502" d="M-389 12v276q2 12 12 12h847q12 -2 12 -12v-276q0 -12 -12 -12h-847q-12 0 -12 12zM32 565v854q2 11 12 11q105 6 132 6l6 -12v-346h150v346q0 12 17 12q133 0 133 -17v-854q0 -11 -12 -11h-115q-12 0 -12 11v335h-167v-335q0 -11 -11 -11h-121q-12 0 -12 11z" />
<glyph unicode="i" horiz-adv-x="325" d="M-389 12v281q2 12 12 12h674q11 -2 11 -12v-281q0 -12 -11 -12h-674q-12 0 -12 12zM39 1418q25 11 158 18l6 -12q0 -57 70 -844l-11 -6q-5 0 -141 -5q0 -6 -6 -6l-12 17z" />
<glyph unicode="j" horiz-adv-x="474" d="M-389 12v278q2 11 12 11h822q11 -2 11 -11v-278q0 -12 -11 -12h-822q-12 0 -12 12zM28 822q4 29 17 29h116q10 0 29 -87q33 -23 41 -23q36 0 52 29v654q1 12 11 12h139q12 -2 12 -12v-683q0 -143 -133 -174q-52 -7 -64 -11q-147 0 -209 127q-11 76 -11 139z" />
<glyph unicode="k" horiz-adv-x="566" d="M-381 12v276q2 12 12 12h905q11 -2 11 -12v-276q0 -12 -11 -12h-905q-12 0 -12 12zM40 571v853q2 12 12 12h138q11 -2 11 -12v-282l225 294q8 0 110 -110q-248 -333 -248 -346q8 -2 242 -334q0 -12 -132 -81l-197 265v-259q0 -12 -11 -12h-138q-12 0 -12 12z" />
<glyph unicode="l" horiz-adv-x="629" d="M-411 12v288q2 12 12 12h997q12 -1 12 -12v-288q0 -12 -12 -12h-997q-12 0 -12 12zM28 1424h6l156 12l6 -12l54 -709h6l330 24q12 -32 12 -126v-18q0 -16 -486 -54h-12l-6 12z" />
<glyph unicode="m" horiz-adv-x="941" d="M-396 12v281q2 12 12 12h1295q12 -2 12 -12v-281q0 -12 -12 -12h-1295q-12 0 -12 12zM26 563q0 21 299 861q2 12 12 12h6q105 -271 117 -317q11 5 111 317h6q35 -59 252 -662q41 -84 76 -200v-11h-234q-21 18 -112 275h-5l-83 -258h-5q-18 14 -100 258h-6 q-83 -236 -111 -275h-223z" />
<glyph unicode="n" horiz-adv-x="446" d="M-400 12v279q2 11 12 11h819q12 -2 12 -11v-279q0 -12 -12 -12h-819q-12 0 -12 12zM19 576v848h5q47 -46 268 -348h6v354h128l11 6l6 -12v-854h-12q-33 62 -261 360v-354q0 -12 -12 -12h-128q-11 0 -11 12z" />
<glyph unicode="o" horiz-adv-x="700" d="M-390 12v280q2 12 12 12h1068q12 -2 12 -12v-280q0 -12 -12 -12h-1068q-12 0 -12 12zM30 946v116q0 143 140 304q102 70 152 70h82q131 0 251 -210q47 -115 47 -228q0 -298 -257 -420q-65 -7 -82 -12q-235 0 -327 333q-6 23 -6 47zM205 1027h129q12 -1 12 -11 q-47 -92 -82 -175h76q11 -2 11 -12q-41 -169 -41 -181q222 246 222 251h-105l-11 6l122 233h-128v6q1 9 76 140q-125 76 -135 76v-6q-112 -239 -146 -327z" />
<glyph unicode="p" horiz-adv-x="495" d="M-368 12v278q2 11 12 11h822q11 -2 11 -11v-278q0 -12 -11 -12h-822q-12 0 -12 12zM49 567v857q2 12 11 12h273q144 0 144 -191v-93q0 -176 -63 -231q-48 -23 -133 -23h-70v-331q0 -11 -12 -11h-139q-11 0 -11 11zM211 1048h23q93 0 93 127q-8 99 -35 99h-81v-226z" />
<glyph unicode="q" horiz-adv-x="778" d="M-389 12v280q2 12 12 12h1120q12 -2 12 -12v-280q0 -12 -12 -12h-1120q-12 0 -12 12zM31 951v100q0 167 158 327q95 58 169 58h6q216 0 315 -280q12 -32 24 -152q0 -153 -70 -263h-146q0 -16 -129 -175h-23q-143 0 -263 210q-41 114 -41 175zM201 1022h134l12 -6 q-82 -170 -82 -181h76l11 -6l-41 -181q15 7 222 245h-105q-11 0 -11 12l122 227h-128v12l76 140q-7 0 -135 76q-33 -87 -151 -338zM387 578q109 146 117 146h234v-6q-197 -255 -257 -315h-6q23 122 23 163h-99q-12 0 -12 12z" />
<glyph unicode="r" horiz-adv-x="516" d="M-390 12v276q2 12 12 12h882q11 -2 11 -12v-276q0 -12 -11 -12h-882q-12 0 -12 12zM25 571v853q2 12 12 12h230q156 0 208 -127q17 -49 17 -69v-29q0 -219 -150 -283q-23 0 -23 -11q37 -43 196 -271q0 -12 -132 -81l-196 265v-259q0 -12 -12 -12h-138q-12 0 -12 12z M187 1050h5q98 0 110 121q0 104 -63 104h-52v-225z" />
<glyph unicode="s" horiz-adv-x="460" d="M-460 12v276q2 12 12 12h899q12 -2 12 -12v-276q0 -12 -12 -12h-899q-12 0 -12 12zM-39 796q9 6 156 52q46 -121 144 -121q26 0 34 52q0 103 -213 242q-92 98 -92 202q0 138 150 201q21 12 46 12h23q109 0 213 -110v-5l-115 -110h-6q-57 58 -104 58q-34 -12 -34 -46v-29 q34 -52 207 -185q93 -106 93 -242q0 -146 -168 -208h-74q-137 0 -248 196q-12 24 -12 41z" />
<glyph unicode="t" horiz-adv-x="629" d="M-389 12v276q2 12 12 12h974q12 -2 12 -12v-276q0 -12 -12 -12h-974q-12 0 -12 12zM26 1223v201q2 12 12 12h553q12 -2 12 -12v-201q0 -12 -12 -12h-196v-646q0 -11 -11 -11h-133q-11 0 -11 11v646h-202q-12 0 -12 12z" />
<glyph unicode="u" horiz-adv-x="651" d="M-396 12v276q2 12 12 12h1003q12 -2 12 -12v-276q0 -12 -12 -12h-1003q-12 0 -12 12zM25 836v588q2 12 12 12h138q11 -2 11 -12v-605q0 -6 -5 -6q31 -98 104 -98h57q92 0 121 75q0 17 6 17l-6 12v605q2 12 12 12h138q12 -2 12 -12v-588q0 -200 -133 -254q0 -9 -81 -23 h-173q-128 0 -196 150q-17 44 -17 127z" />
<glyph unicode="v" horiz-adv-x="721" d="M-396 12v280q2 12 12 12h1068q12 -2 12 -12v-280q0 -12 -12 -12h-1068q-12 0 -12 12zM30 1430l12 6h222q17 0 87 -216h12q72 216 87 216h234v-12l-321 -858h-12z" />
<glyph unicode="w" horiz-adv-x="834" d="M-470 12v279q2 11 12 11h1279q11 -2 11 -11v-279q0 -12 -11 -12h-1279q-12 0 -12 12zM-46 1424v12h233q20 -18 110 -273h6l82 256h5q18 -14 99 -256h6q83 234 111 273h220q0 -21 -296 -855q0 -11 -12 -11h-5q-105 268 -117 314q-11 -4 -110 -314h-6q-35 58 -250 657 q-41 83 -76 197z" />
<glyph unicode="x" horiz-adv-x="651" d="M-389 12v276q2 12 12 12h1020q12 -2 12 -12v-276q0 -12 -12 -12h-1020q-12 0 -12 12zM20 646q36 47 220 357q-7 2 -214 352q0 20 133 81q165 -280 173 -283q165 281 173 283h6q110 -69 121 -69q0 -16 -214 -375q192 -301 214 -358l-127 -75q-27 27 -173 289l-179 -283 h-11q-98 55 -122 81z" />
<glyph unicode="y" horiz-adv-x="686" d="M-417 12v280q2 12 12 12h1068q12 -2 12 -12v-280q0 -12 -12 -12h-1068q-12 0 -12 12zM-3 1430l12 6h228q29 -17 111 -280h6q84 280 99 280h210q12 -2 12 -12q-205 -588 -205 -607v-245q0 -12 -11 -12h-222q-12 0 -12 12v251q0 18 -228 607z" />
<glyph unicode="z" horiz-adv-x="700" d="M-417 11v274q2 11 11 11h1077q12 -1 12 -11v-274q0 -11 -12 -11h-1077q-11 0 -11 11zM-30 564q8 1 422 695h-251q-11 0 -11 12v154q2 11 11 11h536v-11l-422 -696v-5h251q12 -2 12 -12v-148q0 -11 -12 -11h-524q-12 0 -12 11z" />
<glyph unicode="{" horiz-adv-x="715" d="M0 519q209 347 209 365v94q0 345 182 433q44 26 105 26h161q8 0 16 -16v-224q0 -10 -11 -10q-96 -6 -161 -6h-5q-32 -69 -32 -151v-214q0 -17 -167 -292v-10l167 -256v-282q8 -140 42 -140h94q26 0 78 5q12 0 16 -251l-11 -5q-32 0 -172 -5q-197 0 -276 230 q-21 52 -21 125v255z" />
<glyph unicode="}" horiz-adv-x="715" d="M20 -404q3 245 16 245q52 -5 78 -5h94q34 0 42 140v282l166 256v10q-166 275 -166 292v214q0 82 -32 151h-5q-55 0 -167 6l-5 10v224q0 8 16 16h161q236 0 282 -355q5 -28 5 -104v-94q0 -18 209 -365l-214 -329v-255q0 -246 -209 -339q-61 -16 -99 -16q-112 5 -167 5z " />
<glyph unicode="~" horiz-adv-x="1014" d="M0 778q171 177 354 177q179 0 291 -222h11q30 8 86 91q221 -94 246 -120q-135 -251 -337 -251h-23q-156 0 -268 217l-12 6h-11q-43 -3 -131 -80h-6q-128 104 -200 182z" />
<glyph unicode="&#xad;" d="M0 769q0 13 887 33l5 -11v-17q0 -84 6 -231q0 -13 -887 -33l-5 11v17q0 84 -6 231z" />
<glyph unicode="&#x2000;" horiz-adv-x="859" />
<glyph unicode="&#x2001;" horiz-adv-x="1718" />
<glyph unicode="&#x2002;" horiz-adv-x="859" />
<glyph unicode="&#x2003;" horiz-adv-x="1718" />
<glyph unicode="&#x2004;" horiz-adv-x="572" />
<glyph unicode="&#x2005;" horiz-adv-x="429" />
<glyph unicode="&#x2006;" horiz-adv-x="286" />
<glyph unicode="&#x2007;" horiz-adv-x="286" />
<glyph unicode="&#x2008;" horiz-adv-x="214" />
<glyph unicode="&#x2009;" horiz-adv-x="343" />
<glyph unicode="&#x200a;" horiz-adv-x="95" />
<glyph unicode="&#x2010;" d="M0 769q0 13 887 33l5 -11v-17q0 -84 6 -231q0 -13 -887 -33l-5 11v17q0 84 -6 231z" />
<glyph unicode="&#x2011;" d="M0 769q0 13 887 33l5 -11v-17q0 -84 6 -231q0 -13 -887 -33l-5 11v17q0 84 -6 231z" />
<glyph unicode="&#x2012;" d="M0 769q0 13 887 33l5 -11v-17q0 -84 6 -231q0 -13 -887 -33l-5 11v17q0 84 -6 231z" />
<glyph unicode="&#x2013;" horiz-adv-x="1052" d="M0 769q0 13 1011 33l6 -11v-17q0 -84 7 -231q0 -13 -1011 -33l-6 11v17q0 84 -7 231z" />
<glyph unicode="&#x2014;" horiz-adv-x="2076" d="M0 769q0 13 2023 33l11 -11v-17q0 -84 14 -231q0 -13 -2023 -33l-11 11v17q0 84 -14 231z" />
<glyph unicode="&#x202f;" horiz-adv-x="343" />
<glyph unicode="&#x205f;" horiz-adv-x="429" />
<glyph unicode="&#xe000;" horiz-adv-x="1435" d="M0 0v1435h1435v-1435h-1435z" />
</font>
</defs>
</svg>
